<mxfile host="app.diagrams.net" modified="2021-09-25T05:19:16.015Z" agent="5.0 (Windows NT 10.0; Win64; x64) AppleWebKit/537.36 (KHTML, like Gecko) Chrome/93.0.4577.82 Safari/537.36" etag="CdBWXUnYx9-6qYgdSIa3" version="15.3.2" type="github">
  <diagram id="kgpKYQtTHZ0yAKxKKP6v" name="Page-1">
    <mxGraphModel dx="1954" dy="587" grid="1" gridSize="10" guides="1" tooltips="1" connect="1" arrows="1" fold="1" page="1" pageScale="1" pageWidth="850" pageHeight="1100" math="0" shadow="0">
      <root>
        <mxCell id="0" />
        <mxCell id="1" parent="0" />
        <mxCell id="Vf0lbdzWXm9A5-DctzUj-84" value="" style="edgeStyle=none;rounded=0;orthogonalLoop=1;jettySize=auto;html=1;dashed=1;strokeColor=default;exitX=0.5;exitY=1;exitDx=0;exitDy=0;entryX=0.5;entryY=0;entryDx=0;entryDy=0;endArrow=none;endFill=0;" edge="1" parent="1" source="Vf0lbdzWXm9A5-DctzUj-14" target="Vf0lbdzWXm9A5-DctzUj-83">
          <mxGeometry relative="1" as="geometry">
            <mxPoint x="249.41" y="130" as="sourcePoint" />
            <mxPoint x="249.41" y="250" as="targetPoint" />
            <Array as="points" />
          </mxGeometry>
        </mxCell>
        <mxCell id="Vf0lbdzWXm9A5-DctzUj-11" value="&amp;lt;&amp;lt;verify user&amp;gt;&amp;gt;" style="edgeStyle=orthogonalEdgeStyle;rounded=0;orthogonalLoop=1;jettySize=auto;html=1;exitX=1.122;exitY=0.201;exitDx=0;exitDy=0;exitPerimeter=0;" edge="1" parent="1" source="Vf0lbdzWXm9A5-DctzUj-80">
          <mxGeometry relative="1" as="geometry">
            <mxPoint x="160" y="290" as="targetPoint" />
          </mxGeometry>
        </mxCell>
        <mxCell id="Vf0lbdzWXm9A5-DctzUj-79" value="" style="edgeStyle=none;rounded=0;orthogonalLoop=1;jettySize=auto;html=1;dashed=1;strokeColor=default;" edge="1" parent="1" source="Vf0lbdzWXm9A5-DctzUj-9" target="Vf0lbdzWXm9A5-DctzUj-78">
          <mxGeometry relative="1" as="geometry" />
        </mxCell>
        <mxCell id="Vf0lbdzWXm9A5-DctzUj-9" value="Login Page" style="rounded=1;whiteSpace=wrap;html=1;" vertex="1" parent="1">
          <mxGeometry x="-30" y="80" width="120" height="60" as="geometry" />
        </mxCell>
        <mxCell id="Vf0lbdzWXm9A5-DctzUj-13" value="" style="endArrow=none;endFill=1;html=1;edgeStyle=orthogonalEdgeStyle;align=left;verticalAlign=top;fontStyle=0" edge="1" parent="1">
          <mxGeometry x="-1" relative="1" as="geometry">
            <mxPoint x="40" y="60" as="sourcePoint" />
            <mxPoint x="40" y="60" as="targetPoint" />
            <Array as="points" />
          </mxGeometry>
        </mxCell>
        <mxCell id="Vf0lbdzWXm9A5-DctzUj-30" value="&amp;lt;&amp;lt;Search input&amp;gt;&amp;gt;" style="edgeStyle=none;rounded=0;orthogonalLoop=1;jettySize=auto;html=1;exitX=1.255;exitY=0.204;exitDx=0;exitDy=0;exitPerimeter=0;entryX=-0.002;entryY=0.208;entryDx=0;entryDy=0;entryPerimeter=0;" edge="1" parent="1" source="Vf0lbdzWXm9A5-DctzUj-83" target="Vf0lbdzWXm9A5-DctzUj-86">
          <mxGeometry relative="1" as="geometry">
            <mxPoint x="290" y="291" as="targetPoint" />
          </mxGeometry>
        </mxCell>
        <mxCell id="Vf0lbdzWXm9A5-DctzUj-14" value="Library Search screen&lt;span style=&quot;color: rgba(0 , 0 , 0 , 0) ; font-family: monospace ; font-size: 0px&quot;&gt;%3CmxGraphModel%3E%3Croot%3E%3CmxCell%20id%3D%220%22%2F%3E%3CmxCell%20id%3D%221%22%20parent%3D%220%22%2F%3E%3CmxCell%20id%3D%222%22%20value%3D%22login%20Screen%22%20style%3D%22rounded%3D1%3BwhiteSpace%3Dwrap%3Bhtml%3D1%3B%22%20vertex%3D%221%22%20parent%3D%221%22%3E%3CmxGeometry%20x%3D%22110%22%20y%3D%2290%22%20width%3D%22120%22%20height%3D%2260%22%20as%3D%22geometry%22%2F%3E%3C%2FmxCell%3E%3C%2Froot%3E%3C%2FmxGraphModel%3E&lt;/span&gt;" style="rounded=1;whiteSpace=wrap;html=1;" vertex="1" parent="1">
          <mxGeometry x="115" y="79.94" width="120" height="60" as="geometry" />
        </mxCell>
        <mxCell id="Vf0lbdzWXm9A5-DctzUj-15" value="Main Menu Bar" style="rounded=1;whiteSpace=wrap;html=1;" vertex="1" parent="1">
          <mxGeometry x="540" y="80" width="120" height="60" as="geometry" />
        </mxCell>
        <mxCell id="Vf0lbdzWXm9A5-DctzUj-97" value="" style="edgeStyle=none;rounded=0;orthogonalLoop=1;jettySize=auto;html=1;endArrow=classic;endFill=1;strokeColor=default;" edge="1" parent="1" source="Vf0lbdzWXm9A5-DctzUj-96" target="Vf0lbdzWXm9A5-DctzUj-19">
          <mxGeometry relative="1" as="geometry" />
        </mxCell>
        <mxCell id="Vf0lbdzWXm9A5-DctzUj-19" value="Announcements (Social Media)" style="rounded=1;whiteSpace=wrap;html=1;" vertex="1" parent="1">
          <mxGeometry x="735" y="379.99999999999994" width="100" height="30.06" as="geometry" />
        </mxCell>
        <mxCell id="Vf0lbdzWXm9A5-DctzUj-100" value="" style="edgeStyle=none;rounded=0;orthogonalLoop=1;jettySize=auto;html=1;endArrow=none;endFill=0;strokeColor=default;startArrow=none;" edge="1" parent="1" source="Vf0lbdzWXm9A5-DctzUj-113" target="Vf0lbdzWXm9A5-DctzUj-99">
          <mxGeometry relative="1" as="geometry" />
        </mxCell>
        <mxCell id="Vf0lbdzWXm9A5-DctzUj-21" value="Settings Details Preview" style="whiteSpace=wrap;html=1;rounded=1;" vertex="1" parent="1">
          <mxGeometry x="917.5" y="220" width="95" height="40" as="geometry" />
        </mxCell>
        <mxCell id="Vf0lbdzWXm9A5-DctzUj-32" value="&amp;lt;&amp;lt;Request&amp;gt;&amp;gt;" style="edgeStyle=none;rounded=0;orthogonalLoop=1;jettySize=auto;html=1;exitX=0.971;exitY=0.204;exitDx=0;exitDy=0;exitPerimeter=0;" edge="1" parent="1" source="Vf0lbdzWXm9A5-DctzUj-86">
          <mxGeometry relative="1" as="geometry">
            <mxPoint x="444" y="291" as="targetPoint" />
          </mxGeometry>
        </mxCell>
        <mxCell id="Vf0lbdzWXm9A5-DctzUj-29" value="Library Search Filter" style="whiteSpace=wrap;html=1;rounded=1;" vertex="1" parent="1">
          <mxGeometry x="260" y="79.94" width="120" height="60" as="geometry" />
        </mxCell>
        <mxCell id="Vf0lbdzWXm9A5-DctzUj-31" value="Library Search Results" style="whiteSpace=wrap;html=1;rounded=1;" vertex="1" parent="1">
          <mxGeometry x="400" y="80" width="120" height="60" as="geometry" />
        </mxCell>
        <mxCell id="Vf0lbdzWXm9A5-DctzUj-35" value="Search Bookmarks" style="rounded=1;whiteSpace=wrap;html=1;" vertex="1" parent="1">
          <mxGeometry x="910" y="329.93999999999994" width="110" height="30.06" as="geometry" />
        </mxCell>
        <mxCell id="Vf0lbdzWXm9A5-DctzUj-37" value="Search Downloads" style="rounded=1;whiteSpace=wrap;html=1;" vertex="1" parent="1">
          <mxGeometry x="956" y="390" width="120" height="30" as="geometry" />
        </mxCell>
        <mxCell id="Vf0lbdzWXm9A5-DctzUj-41" value="" style="edgeStyle=none;rounded=0;orthogonalLoop=1;jettySize=auto;html=1;entryX=0;entryY=0.5;entryDx=0;entryDy=0;" edge="1" parent="1">
          <mxGeometry relative="1" as="geometry">
            <mxPoint x="770" y="470" as="sourcePoint" />
            <mxPoint x="770" y="470" as="targetPoint" />
            <Array as="points" />
          </mxGeometry>
        </mxCell>
        <mxCell id="Vf0lbdzWXm9A5-DctzUj-44" value="" style="edgeStyle=none;rounded=0;orthogonalLoop=1;jettySize=auto;html=1;entryX=0;entryY=0.5;entryDx=0;entryDy=0;" edge="1" parent="1">
          <mxGeometry relative="1" as="geometry">
            <mxPoint x="770" y="470" as="sourcePoint" />
            <mxPoint x="770" y="470" as="targetPoint" />
          </mxGeometry>
        </mxCell>
        <mxCell id="Vf0lbdzWXm9A5-DctzUj-105" value="" style="edgeStyle=none;rounded=0;orthogonalLoop=1;jettySize=auto;html=1;endArrow=classic;endFill=1;strokeColor=default;" edge="1" parent="1" target="Vf0lbdzWXm9A5-DctzUj-40">
          <mxGeometry relative="1" as="geometry">
            <mxPoint x="860" y="290" as="sourcePoint" />
          </mxGeometry>
        </mxCell>
        <mxCell id="Vf0lbdzWXm9A5-DctzUj-40" value="Contact Us Page" style="rounded=1;whiteSpace=wrap;html=1;" vertex="1" parent="1">
          <mxGeometry x="805" y="480" width="110" height="30.06" as="geometry" />
        </mxCell>
        <mxCell id="Vf0lbdzWXm9A5-DctzUj-43" value="" style="shape=waypoint;size=6;pointerEvents=1;points=[];fillColor=#ffffff;resizable=0;rotatable=0;perimeter=centerPerimeter;snapToPoint=1;rounded=1;" vertex="1" parent="1">
          <mxGeometry x="430" y="450" width="40" height="40" as="geometry" />
        </mxCell>
        <mxCell id="Vf0lbdzWXm9A5-DctzUj-65" value="&amp;lt;&amp;lt;Search Again&amp;gt;&amp;gt;" style="edgeStyle=none;rounded=0;orthogonalLoop=1;jettySize=auto;html=1;" edge="1" parent="1">
          <mxGeometry relative="1" as="geometry">
            <mxPoint x="450" y="419" as="sourcePoint" />
            <mxPoint x="330" y="419" as="targetPoint" />
            <Array as="points">
              <mxPoint x="380" y="419" />
            </Array>
          </mxGeometry>
        </mxCell>
        <mxCell id="Vf0lbdzWXm9A5-DctzUj-72" value="" style="edgeStyle=none;rounded=0;orthogonalLoop=1;jettySize=auto;html=1;" edge="1" parent="1" source="Vf0lbdzWXm9A5-DctzUj-55">
          <mxGeometry relative="1" as="geometry">
            <mxPoint x="450" y="310" as="targetPoint" />
          </mxGeometry>
        </mxCell>
        <mxCell id="Vf0lbdzWXm9A5-DctzUj-55" value="" style="shape=waypoint;sketch=0;fillStyle=solid;size=6;pointerEvents=1;points=[];fillColor=none;resizable=0;rotatable=0;perimeter=centerPerimeter;snapToPoint=1;" vertex="1" parent="1">
          <mxGeometry x="430" y="360" width="40" height="40" as="geometry" />
        </mxCell>
        <mxCell id="Vf0lbdzWXm9A5-DctzUj-125" value="" style="edgeStyle=none;rounded=0;orthogonalLoop=1;jettySize=auto;html=1;endArrow=none;endFill=0;strokeColor=default;dashed=1;" edge="1" parent="1" source="Vf0lbdzWXm9A5-DctzUj-60" target="Vf0lbdzWXm9A5-DctzUj-123">
          <mxGeometry relative="1" as="geometry" />
        </mxCell>
        <mxCell id="Vf0lbdzWXm9A5-DctzUj-60" value="Annoucement Preview" style="rounded=1;whiteSpace=wrap;html=1;" vertex="1" parent="1">
          <mxGeometry x="878.75" y="79.94" width="120" height="60" as="geometry" />
        </mxCell>
        <mxCell id="Vf0lbdzWXm9A5-DctzUj-64" value="" style="edgeStyle=none;rounded=0;orthogonalLoop=1;jettySize=auto;html=1;entryX=0.531;entryY=0.525;entryDx=0;entryDy=0;entryPerimeter=0;" edge="1" parent="1">
          <mxGeometry relative="1" as="geometry">
            <mxPoint x="330" y="380" as="sourcePoint" />
            <mxPoint x="330" y="380" as="targetPoint" />
          </mxGeometry>
        </mxCell>
        <mxCell id="Vf0lbdzWXm9A5-DctzUj-122" value="" style="edgeStyle=none;rounded=0;orthogonalLoop=1;jettySize=auto;html=1;endArrow=none;endFill=0;strokeColor=default;dashed=1;" edge="1" parent="1" source="Vf0lbdzWXm9A5-DctzUj-66" target="Vf0lbdzWXm9A5-DctzUj-113">
          <mxGeometry relative="1" as="geometry" />
        </mxCell>
        <mxCell id="Vf0lbdzWXm9A5-DctzUj-66" value="Admin-Send Announcement" style="whiteSpace=wrap;html=1;rounded=1;" vertex="1" parent="1">
          <mxGeometry x="725" y="80" width="120" height="60" as="geometry" />
        </mxCell>
        <mxCell id="Vf0lbdzWXm9A5-DctzUj-77" value="" style="edgeStyle=none;rounded=0;orthogonalLoop=1;jettySize=auto;html=1;strokeColor=default;dashed=1;endArrow=none;endFill=0;" edge="1" parent="1" source="Vf0lbdzWXm9A5-DctzUj-70">
          <mxGeometry relative="1" as="geometry">
            <mxPoint x="-126" y="520" as="targetPoint" />
            <Array as="points">
              <mxPoint x="-126" y="280" />
            </Array>
          </mxGeometry>
        </mxCell>
        <mxCell id="Vf0lbdzWXm9A5-DctzUj-70" value="USER" style="shape=umlActor;verticalLabelPosition=bottom;verticalAlign=top;html=1;outlineConnect=0;strokeWidth=4;" vertex="1" parent="1">
          <mxGeometry x="-151" y="69.94" width="50" height="70" as="geometry" />
        </mxCell>
        <mxCell id="Vf0lbdzWXm9A5-DctzUj-81" value="" style="edgeStyle=none;rounded=0;orthogonalLoop=1;jettySize=auto;html=1;dashed=1;strokeColor=default;" edge="1" parent="1" source="Vf0lbdzWXm9A5-DctzUj-78" target="Vf0lbdzWXm9A5-DctzUj-80">
          <mxGeometry relative="1" as="geometry" />
        </mxCell>
        <mxCell id="Vf0lbdzWXm9A5-DctzUj-78" value="" style="shape=waypoint;size=6;pointerEvents=1;points=[];fillColor=#ffffff;resizable=0;rotatable=0;perimeter=centerPerimeter;snapToPoint=1;rounded=1;" vertex="1" parent="1">
          <mxGeometry x="10" y="240" width="40" height="40" as="geometry" />
        </mxCell>
        <mxCell id="Vf0lbdzWXm9A5-DctzUj-80" value="" style="whiteSpace=wrap;html=1;rounded=1;" vertex="1" parent="1">
          <mxGeometry x="15" y="240" width="30" height="250" as="geometry" />
        </mxCell>
        <mxCell id="Vf0lbdzWXm9A5-DctzUj-82" value="&amp;lt;&amp;lt; If already logged in&amp;gt;&amp;gt;" style="endArrow=classic;html=1;strokeColor=default;" edge="1" parent="1">
          <mxGeometry width="50" height="50" relative="1" as="geometry">
            <mxPoint x="-120" y="420" as="sourcePoint" />
            <mxPoint x="160" y="420" as="targetPoint" />
          </mxGeometry>
        </mxCell>
        <mxCell id="Vf0lbdzWXm9A5-DctzUj-83" value="" style="whiteSpace=wrap;html=1;rounded=1;" vertex="1" parent="1">
          <mxGeometry x="160" y="239.94" width="30" height="250" as="geometry" />
        </mxCell>
        <mxCell id="Vf0lbdzWXm9A5-DctzUj-86" value="" style="whiteSpace=wrap;html=1;rounded=1;" vertex="1" parent="1">
          <mxGeometry x="300" y="240" width="30" height="250" as="geometry" />
        </mxCell>
        <mxCell id="Vf0lbdzWXm9A5-DctzUj-87" value="" style="edgeStyle=none;rounded=0;orthogonalLoop=1;jettySize=auto;html=1;dashed=1;strokeColor=default;exitX=0.5;exitY=1;exitDx=0;exitDy=0;entryX=0.5;entryY=0;entryDx=0;entryDy=0;endArrow=none;endFill=0;" edge="1" parent="1">
          <mxGeometry relative="1" as="geometry">
            <mxPoint x="314.40999999999997" y="139.93999999999994" as="sourcePoint" />
            <mxPoint x="314.40999999999997" y="239.94000000000005" as="targetPoint" />
            <Array as="points" />
          </mxGeometry>
        </mxCell>
        <mxCell id="Vf0lbdzWXm9A5-DctzUj-88" value="&amp;lt;&amp;lt;Go Back&amp;gt;&amp;gt;" style="edgeStyle=none;rounded=0;orthogonalLoop=1;jettySize=auto;html=1;exitX=-0.065;exitY=0.716;exitDx=0;exitDy=0;exitPerimeter=0;entryX=-0.002;entryY=0.208;entryDx=0;entryDy=0;entryPerimeter=0;" edge="1" parent="1" source="Vf0lbdzWXm9A5-DctzUj-86">
          <mxGeometry relative="1" as="geometry">
            <mxPoint x="292.2900000000001" y="421.0600000000001" as="sourcePoint" />
            <mxPoint x="190.00000000000009" y="420.00000000000006" as="targetPoint" />
          </mxGeometry>
        </mxCell>
        <mxCell id="Vf0lbdzWXm9A5-DctzUj-89" value="" style="whiteSpace=wrap;html=1;rounded=1;" vertex="1" parent="1">
          <mxGeometry x="445" y="240" width="30" height="250" as="geometry" />
        </mxCell>
        <mxCell id="Vf0lbdzWXm9A5-DctzUj-90" value="" style="edgeStyle=none;rounded=0;orthogonalLoop=1;jettySize=auto;html=1;dashed=1;strokeColor=default;exitX=0.5;exitY=1;exitDx=0;exitDy=0;entryX=0.5;entryY=0;entryDx=0;entryDy=0;endArrow=none;endFill=0;" edge="1" parent="1">
          <mxGeometry relative="1" as="geometry">
            <mxPoint x="459.40999999999985" y="139.87999999999994" as="sourcePoint" />
            <mxPoint x="459.40999999999985" y="239.88000000000005" as="targetPoint" />
            <Array as="points" />
          </mxGeometry>
        </mxCell>
        <mxCell id="Vf0lbdzWXm9A5-DctzUj-91" value="" style="edgeStyle=none;rounded=0;orthogonalLoop=1;jettySize=auto;html=1;dashed=1;strokeColor=default;exitX=0.5;exitY=1;exitDx=0;exitDy=0;entryX=0.5;entryY=0;entryDx=0;entryDy=0;endArrow=none;endFill=0;" edge="1" parent="1">
          <mxGeometry relative="1" as="geometry">
            <mxPoint x="599.4099999999999" y="139.88" as="sourcePoint" />
            <mxPoint x="599.4099999999999" y="239.8800000000001" as="targetPoint" />
            <Array as="points" />
          </mxGeometry>
        </mxCell>
        <mxCell id="Vf0lbdzWXm9A5-DctzUj-92" value="" style="whiteSpace=wrap;html=1;rounded=1;" vertex="1" parent="1">
          <mxGeometry x="585" y="239.94" width="30" height="250" as="geometry" />
        </mxCell>
        <mxCell id="Vf0lbdzWXm9A5-DctzUj-93" value="&amp;lt;&amp;lt;Nav Bar Click&amp;gt;&amp;gt;" style="edgeStyle=none;rounded=0;orthogonalLoop=1;jettySize=auto;html=1;" edge="1" parent="1">
          <mxGeometry relative="1" as="geometry">
            <mxPoint x="480" y="290" as="sourcePoint" />
            <mxPoint x="584.8699999999995" y="290" as="targetPoint" />
          </mxGeometry>
        </mxCell>
        <mxCell id="Vf0lbdzWXm9A5-DctzUj-95" value="&amp;lt;&amp;lt;Request&amp;gt;&amp;gt;" style="edgeStyle=none;rounded=0;orthogonalLoop=1;jettySize=auto;html=1;exitDx=0;exitDy=0;exitPerimeter=0;startArrow=none;" edge="1" parent="1" source="Vf0lbdzWXm9A5-DctzUj-96">
          <mxGeometry x="-1" y="96" relative="1" as="geometry">
            <mxPoint x="811.0134615384613" y="394.90999999999985" as="sourcePoint" />
            <mxPoint x="790" y="290" as="targetPoint" />
            <mxPoint x="-96" y="86" as="offset" />
          </mxGeometry>
        </mxCell>
        <mxCell id="Vf0lbdzWXm9A5-DctzUj-96" value="" style="shape=waypoint;size=6;pointerEvents=1;points=[];fillColor=#ffffff;resizable=0;rotatable=0;perimeter=centerPerimeter;snapToPoint=1;rounded=1;" vertex="1" parent="1">
          <mxGeometry x="765" y="269.94" width="40" height="40" as="geometry" />
        </mxCell>
        <mxCell id="Vf0lbdzWXm9A5-DctzUj-98" value="" style="edgeStyle=none;rounded=0;orthogonalLoop=1;jettySize=auto;html=1;endArrow=none;startArrow=none;" edge="1" parent="1" source="Vf0lbdzWXm9A5-DctzUj-99" target="Vf0lbdzWXm9A5-DctzUj-96">
          <mxGeometry relative="1" as="geometry">
            <mxPoint x="620" y="290" as="sourcePoint" />
            <mxPoint x="790" y="290" as="targetPoint" />
          </mxGeometry>
        </mxCell>
        <mxCell id="Vf0lbdzWXm9A5-DctzUj-103" value="" style="edgeStyle=none;rounded=0;orthogonalLoop=1;jettySize=auto;html=1;endArrow=oval;endFill=1;strokeColor=default;" edge="1" parent="1" source="Vf0lbdzWXm9A5-DctzUj-99" target="Vf0lbdzWXm9A5-DctzUj-102">
          <mxGeometry relative="1" as="geometry" />
        </mxCell>
        <mxCell id="Vf0lbdzWXm9A5-DctzUj-99" value="" style="shape=waypoint;size=6;pointerEvents=1;points=[];fillColor=#ffffff;resizable=0;rotatable=0;perimeter=centerPerimeter;snapToPoint=1;rounded=1;" vertex="1" parent="1">
          <mxGeometry x="765" y="269.94" width="40" height="40" as="geometry" />
        </mxCell>
        <mxCell id="Vf0lbdzWXm9A5-DctzUj-101" value="" style="edgeStyle=none;rounded=0;orthogonalLoop=1;jettySize=auto;html=1;endArrow=none;endFill=0;" edge="1" parent="1" target="Vf0lbdzWXm9A5-DctzUj-99">
          <mxGeometry relative="1" as="geometry">
            <mxPoint x="620" y="290" as="sourcePoint" />
            <mxPoint x="785" y="289.94000000000005" as="targetPoint" />
          </mxGeometry>
        </mxCell>
        <mxCell id="Vf0lbdzWXm9A5-DctzUj-104" value="" style="edgeStyle=none;rounded=0;orthogonalLoop=1;jettySize=auto;html=1;endArrow=classic;endFill=1;strokeColor=default;" edge="1" parent="1" source="Vf0lbdzWXm9A5-DctzUj-102" target="Vf0lbdzWXm9A5-DctzUj-35">
          <mxGeometry relative="1" as="geometry" />
        </mxCell>
        <mxCell id="Vf0lbdzWXm9A5-DctzUj-111" value="" style="edgeStyle=none;rounded=0;orthogonalLoop=1;jettySize=auto;html=1;endArrow=none;endFill=0;strokeColor=default;" edge="1" parent="1" source="Vf0lbdzWXm9A5-DctzUj-102" target="Vf0lbdzWXm9A5-DctzUj-110">
          <mxGeometry relative="1" as="geometry" />
        </mxCell>
        <mxCell id="Vf0lbdzWXm9A5-DctzUj-102" value="" style="shape=waypoint;size=6;pointerEvents=1;points=[];fillColor=#ffffff;resizable=0;rotatable=0;perimeter=centerPerimeter;snapToPoint=1;rounded=1;" vertex="1" parent="1">
          <mxGeometry x="945" y="269.94" width="40" height="40" as="geometry" />
        </mxCell>
        <mxCell id="Vf0lbdzWXm9A5-DctzUj-112" value="" style="edgeStyle=none;rounded=0;orthogonalLoop=1;jettySize=auto;html=1;endArrow=classic;endFill=1;strokeColor=default;entryX=0.39;entryY=-0.007;entryDx=0;entryDy=0;entryPerimeter=0;exitX=0.408;exitY=0.568;exitDx=0;exitDy=0;exitPerimeter=0;" edge="1" parent="1" source="Vf0lbdzWXm9A5-DctzUj-110" target="Vf0lbdzWXm9A5-DctzUj-37">
          <mxGeometry relative="1" as="geometry">
            <Array as="points">
              <mxPoint x="1056" y="340" />
            </Array>
          </mxGeometry>
        </mxCell>
        <mxCell id="Vf0lbdzWXm9A5-DctzUj-110" value="" style="shape=waypoint;size=6;pointerEvents=1;points=[];fillColor=#ffffff;resizable=0;rotatable=0;perimeter=centerPerimeter;snapToPoint=1;rounded=1;" vertex="1" parent="1">
          <mxGeometry x="1036" y="269.94" width="40" height="40" as="geometry" />
        </mxCell>
        <mxCell id="Vf0lbdzWXm9A5-DctzUj-113" value="" style="whiteSpace=wrap;html=1;rounded=1;" vertex="1" parent="1">
          <mxGeometry x="770" y="164.94" width="30" height="75.06" as="geometry" />
        </mxCell>
        <mxCell id="Vf0lbdzWXm9A5-DctzUj-114" value="" style="edgeStyle=none;rounded=0;orthogonalLoop=1;jettySize=auto;html=1;endArrow=none;endFill=0;strokeColor=default;entryX=0.408;entryY=0.435;entryDx=0;entryDy=0;entryPerimeter=0;" edge="1" parent="1" source="Vf0lbdzWXm9A5-DctzUj-21" target="Vf0lbdzWXm9A5-DctzUj-102">
          <mxGeometry relative="1" as="geometry">
            <mxPoint x="785" y="140" as="sourcePoint" />
            <mxPoint x="785" y="289.94000000000005" as="targetPoint" />
          </mxGeometry>
        </mxCell>
        <mxCell id="Vf0lbdzWXm9A5-DctzUj-121" value="&amp;lt;&amp;lt;Settings Menu Click&amp;gt;&amp;gt;&lt;br&gt;&amp;lt;&amp;lt;User-Admin&amp;gt;&amp;gt;" style="edgeStyle=none;rounded=0;orthogonalLoop=1;jettySize=auto;html=1;entryX=0.067;entryY=0.414;entryDx=0;entryDy=0;entryPerimeter=0;" edge="1" parent="1" target="Vf0lbdzWXm9A5-DctzUj-113">
          <mxGeometry x="0.0884" y="-6" relative="1" as="geometry">
            <mxPoint x="620" y="270" as="sourcePoint" />
            <mxPoint x="594.8699999999994" y="300" as="targetPoint" />
            <Array as="points">
              <mxPoint x="650" y="196" />
            </Array>
            <mxPoint as="offset" />
          </mxGeometry>
        </mxCell>
        <mxCell id="Vf0lbdzWXm9A5-DctzUj-123" value="" style="whiteSpace=wrap;html=1;rounded=1;" vertex="1" parent="1">
          <mxGeometry x="930" y="170" width="17.5" height="40" as="geometry" />
        </mxCell>
        <mxCell id="Vf0lbdzWXm9A5-DctzUj-124" value="&amp;lt;&amp;lt;Send &lt;br&gt;Announcement&amp;gt;&amp;gt;" style="edgeStyle=none;rounded=0;orthogonalLoop=1;jettySize=auto;html=1;exitX=0.971;exitY=0.204;exitDx=0;exitDy=0;exitPerimeter=0;entryX=0;entryY=0.5;entryDx=0;entryDy=0;" edge="1" parent="1" target="Vf0lbdzWXm9A5-DctzUj-123">
          <mxGeometry relative="1" as="geometry">
            <mxPoint x="802.63" y="190.0000000000001" as="sourcePoint" />
            <mxPoint x="890" y="190" as="targetPoint" />
          </mxGeometry>
        </mxCell>
        <mxCell id="Vf0lbdzWXm9A5-DctzUj-126" value="&amp;lt;&amp;lt;Open app&amp;gt;&amp;gt;" style="edgeStyle=orthogonalEdgeStyle;rounded=0;orthogonalLoop=1;jettySize=auto;html=1;exitX=1.122;exitY=0.201;exitDx=0;exitDy=0;exitPerimeter=0;" edge="1" parent="1">
          <mxGeometry relative="1" as="geometry">
            <mxPoint x="-111.00000000000014" y="288.19" as="sourcePoint" />
            <mxPoint x="10" y="288" as="targetPoint" />
            <Array as="points">
              <mxPoint x="-19.659999999999997" y="287.94" />
              <mxPoint x="-19.659999999999997" y="287.94" />
            </Array>
          </mxGeometry>
        </mxCell>
        <mxCell id="Vf0lbdzWXm9A5-DctzUj-127" value="&amp;lt;&amp;lt;User not &lt;br&gt;Verified&amp;gt;&amp;gt;" style="edgeStyle=none;rounded=0;orthogonalLoop=1;jettySize=auto;html=1;exitX=-0.065;exitY=0.716;exitDx=0;exitDy=0;exitPerimeter=0;entryX=-0.002;entryY=0.208;entryDx=0;entryDy=0;entryPerimeter=0;" edge="1" parent="1">
          <mxGeometry relative="1" as="geometry">
            <mxPoint x="158.05000000000018" y="390" as="sourcePoint" />
            <mxPoint x="50" y="391" as="targetPoint" />
          </mxGeometry>
        </mxCell>
        <mxCell id="Vf0lbdzWXm9A5-DctzUj-128" value="&amp;lt;&amp;lt;Close menu&amp;gt;&amp;gt;" style="edgeStyle=none;rounded=0;orthogonalLoop=1;jettySize=auto;html=1;" edge="1" parent="1">
          <mxGeometry relative="1" as="geometry">
            <mxPoint x="580" y="420" as="sourcePoint" />
            <mxPoint x="475" y="420" as="targetPoint" />
            <Array as="points">
              <mxPoint x="525" y="420" />
            </Array>
          </mxGeometry>
        </mxCell>
      </root>
    </mxGraphModel>
  </diagram>
</mxfile>
